<?xml version="1.0" encoding="UTF-8"?>
<svg version="1.1" xmlns="http://www.w3.org/2000/svg" width="170" height="168">
<path d="M0 0 C6.56569394 5.87525391 10.49921171 12.87268453 11.20605469 21.73803711 C11.26256935 24.9387994 11.23148305 28.12392034 11.15625 31.32421875 C11.13594727 32.9803418 11.13594727 32.9803418 11.11523438 34.66992188 C11.08019815 37.36771147 11.03107591 40.06444511 10.96875 42.76171875 C11.73429199 42.77106445 12.49983398 42.78041016 13.28857422 42.79003906 C16.80758322 42.84421852 20.32533016 42.92777305 23.84375 43.01171875 C25.04773438 43.02589844 26.25171875 43.04007813 27.4921875 43.0546875 C36.7037363 43.30500133 45.61326637 44.47989057 52.34375 51.38671875 C58.806099 58.4769883 60.41477388 65.67561628 60.40234375 75.09765625 C59.9134332 78.10159315 58.97471441 79.51631562 56.96875 81.76171875 C56.453125 81.16359375 55.9375 80.56546875 55.40625 79.94921875 C52.99749492 77.50904531 52.99749492 77.50904531 49.28125 76.44921875 C48.188125 75.89234375 47.095 75.33546875 45.96875 74.76171875 C45.21875 71.44921875 45.21875 71.44921875 44.96875 67.76171875 C43.40756845 63.33837101 41.5847619 60.86740833 37.43017578 58.60229492 C31.73294796 56.65669332 25.43846166 57.0710708 19.46875 57.01171875 C18.06637021 56.98350903 16.66402399 56.95357475 15.26171875 56.921875 C9.16396038 56.79364691 3.06783364 56.75195084 -3.03125 56.76171875 C-3.04583252 55.71830322 -3.06041504 54.6748877 -3.07543945 53.59985352 C-3.13385393 49.69131926 -3.21108007 45.7833354 -3.29370117 41.87524414 C-3.32674913 40.19076538 -3.3548423 38.50618125 -3.37768555 36.8215332 C-3.39511323 23.96176182 -3.39511323 23.96176182 -7.03125 11.76171875 C-9.12648705 10.05552238 -9.12648705 10.05552238 -12.03125 9.76171875 C-12.72863281 9.62121094 -13.42601562 9.48070312 -14.14453125 9.3359375 C-18.0162034 8.69174331 -20.56221725 8.61127428 -24.34375 9.82421875 C-28.1861882 12.59434862 -30.60806493 15.16552092 -31.39501953 19.9934082 C-32.02312515 27.8061215 -32.34603875 35.61585814 -32.59375 43.44921875 C-32.63693359 44.73505859 -32.68011719 46.02089844 -32.72460938 47.34570312 C-32.82961761 50.48428274 -32.93082774 53.62298905 -33.03125 56.76171875 C-37.65125 56.76171875 -42.27125 56.76171875 -47.03125 56.76171875 C-47.03125 53.5565062 -46.60296757 52.78899215 -45.03125 50.13671875 C-41.7093904 43.64667989 -42.52245876 38.1483421 -44.53125 31.32421875 C-47.26096937 21.82954267 -46.71929181 15.32906706 -41.9453125 6.5390625 C-37.28201666 -0.22747493 -30.86193159 -4.05525719 -22.96875 -5.98828125 C-14.44451759 -6.52950236 -6.91646276 -5.17481725 0 0 Z " fill="#FCFDFD" transform="translate(97.03125,11.23828125)"/>
<path d="M0 0 C3.45195767 1.4258086 5.1014256 3.09746334 7.25 6.125 C7.77078125 6.84945312 8.2915625 7.57390625 8.828125 8.3203125 C9.40820312 9.15175781 9.40820312 9.15175781 10 10 C9.21625 10.721875 8.4325 11.44375 7.625 12.1875 C4.54897456 15.48324154 2.99554289 17.55750472 3.00390625 22.140625 C3.36025643 26.72010388 3.93867613 30.41086167 7 34 C12.02807885 37.14770986 16.15118452 37.46582665 21.8984375 37.51171875 C23.15087753 37.53864555 23.15087753 37.53864555 24.42861938 37.56611633 C27.07736261 37.61999922 29.72592794 37.65404361 32.375 37.6875 C34.17841005 37.72069259 35.9817967 37.75518404 37.78515625 37.79101562 C42.18997534 37.87571275 46.5947437 37.94262834 51 38 C51.61802437 45.19005136 52.11364703 52.28341348 52 59.5 C51.92761843 66.71101358 52.30058448 73.81850135 53 81 C53.66 81 54.32 81 55 81 C55.5775 81.61875 56.155 82.2375 56.75 82.875 C59.50501012 85.476954 61.27557184 86.28376382 65 87 C70.26452171 86.50354216 74.27061152 84.83907637 78 81 C80.54004659 76.30091381 80.4383097 71.40316017 80.625 66.1875 C80.66367188 65.30384766 80.70234375 64.42019531 80.7421875 63.50976562 C80.83600784 61.34017028 80.91907326 59.17011453 81 57 C84.38847145 58.12949048 85.19694184 59.12283218 87.4375 61.8125 C89.37108968 64.1229758 91.1312172 66.11102994 93.4375 68.0625 C95 70 95 70 95.4375 73.1875 C94.50774379 81.28966125 91.87439818 88.18666625 86 94 C77.48427166 100.18836498 70.48306397 101.93740245 60 101 C52.3257065 98.93384406 46.59404982 94.22503491 41.6875 88.125 C37.56763912 80.49562801 37.6082154 72.48321002 37.375 64 C37.31699219 62.26556641 37.31699219 62.26556641 37.2578125 60.49609375 C37.16419668 57.6642152 37.07846325 54.83233206 37 52 C36.22922119 51.9906543 35.45844238 51.98130859 34.66430664 51.97167969 C31.12975194 51.91758342 27.59646518 51.83401158 24.0625 51.75 C22.85013672 51.73582031 21.63777344 51.72164062 20.38867188 51.70703125 C10.66652352 51.44355839 2.80362287 49.60498517 -4.42578125 42.796875 C-10.65522383 35.68634501 -11.95537234 28.08791478 -11.5078125 18.875 C-10.8074614 13.53078238 -8.99087757 9.44358953 -6 5 C-5.34 5 -4.68 5 -4 5 C-3.67 4.01 -3.34 3.02 -3 2 C-2.01 1.34 -1.02 0.68 0 0 Z " fill="#FCFDFD" transform="translate(13,60)"/>
<path d="M0 0 C3.5 0.25 3.5 0.25 5.5 2.25 C6.61375 2.683125 7.7275 3.11625 8.875 3.5625 C14.10520272 5.99724954 16.17209076 8.9848639 18.1875 14.25 C20.36855872 21.50807873 22.17869237 29.85807288 18.625 36.875 C17.92375 37.98875 17.2225 39.1025 16.5 40.25 C15.51183262 43.21450213 15.42295258 45.16810326 15.5 48.25 C15.5 49.24 15.5 50.23 15.5 51.25 C18.70769622 55.77851231 21.17810777 58.26466159 26.5 60.25 C31.1512971 60.57541465 35.79385104 60.27009209 40.4453125 60.04492188 C46.48446168 59.87625354 49.96466373 60.08017603 54.5 64.25 C54.83 65.24 55.16 66.23 55.5 67.25 C56.16 67.25 56.82 67.25 57.5 67.25 C57.76103516 67.74290527 58.02207031 68.23581055 58.29101562 68.74365234 C68.50548136 89.36436844 68.50548136 89.36436844 86.7890625 101.97265625 C91.66904923 102.83629651 95.38299156 102.158698 99.66015625 99.66015625 C106.28761276 94.58051337 110.61870274 85.91302464 113.5 78.25 C113.72040323 75.00445618 113.72040323 75.00445618 113.5 72.25 C107.51422215 70.37944442 101.73615212 69.98905837 95.51025391 69.72167969 C90.47000869 69.4506354 86.26055351 68.40282019 81.53515625 66.73828125 C78.5256613 66.01623352 76.35379766 67.23531639 73.5 68.25 C69.23756651 67.07415628 67.01326146 65.80175607 64 62.5625 C62.09910927 58.36469963 62.10020802 55.60191737 63.5 51.25 C65.33285193 48.23888611 66.79547252 46.66890823 69.8125 44.875 C73.54427119 44.00714624 75.80713943 44.14862053 79.5 45.25 C82.76566112 47.72789199 85.18817662 50.3659303 85.87109375 54.4921875 C85.875 56.6875 85.875 56.6875 85.5 60.25 C88.65290483 62.06992442 91.20014448 62.58549857 94.81640625 62.84765625 C95.82767578 62.92693359 96.83894531 63.00621094 97.88085938 63.08789062 C99.45577148 63.19907227 99.45577148 63.19907227 101.0625 63.3125 C103.14737911 63.46679381 105.23203047 63.62420573 107.31640625 63.78515625 C108.23881104 63.850979 109.16121582 63.91680176 110.11157227 63.98461914 C112.5 64.25 112.5 64.25 115.5 65.25 C115.5 65.91 115.5 66.57 115.5 67.25 C116.45712891 67.62511719 116.45712891 67.62511719 117.43359375 68.0078125 C119.5 69.25 119.5 69.25 120.28515625 70.9921875 C121.61437775 81.21408808 116.24356918 90.08316717 110.31640625 98.05859375 C105.72963782 103.59230792 100.70795312 107.85280619 93.5 109.25 C84.11897999 110.0473867 77.51155361 105.33348813 70.49609375 99.6171875 C62.08503046 91.82707519 56.16317668 80.37146147 51.4921875 70.015625 C50.56536126 67.98556096 50.56536126 67.98556096 47.9375 66.9375 C44.24833264 66.19966653 41.53817597 66.44174246 37.85546875 66.94140625 C29.27550441 68.06548118 22.98096262 66.92785727 15.70703125 62.046875 C12.42964975 59.4897082 10.58159551 56.77966195 8.5 53.25 C6.8603279 51.88360658 5.19672386 50.54486821 3.5 49.25 C3.17 48.59 2.84 47.93 2.5 47.25 C1.489375 47.1675 0.47875 47.085 -0.5625 47 C-5.45153895 46.45339937 -9.05231287 43.63041518 -12.5 40.25 C-12.995 38.765 -12.995 38.765 -13.5 37.25 C-14.16 37.25 -14.82 37.25 -15.5 37.25 C-15.83 35.93 -16.16 34.61 -16.5 33.25 C-17.16 33.25 -17.82 33.25 -18.5 33.25 C-21.46471886 28.15438945 -23.33306281 24.28970535 -22.5 18.25 C-19.6403118 9.3903118 -19.6403118 9.3903118 -16.5 6.25 C-13.0625 5.8125 -13.0625 5.8125 -9.5 6.25 C-7.4375 8.4375 -7.4375 8.4375 -6.5 11.25 C-7.16280383 13.68028072 -7.7010972 15.4510972 -9.5 17.25 C-11.49958364 17.29080783 -13.50045254 17.29254356 -15.5 17.25 C-16.25633225 23.17460264 -14.77596925 26.25002546 -11.265625 31.0234375 C-10.68296875 31.75820313 -10.1003125 32.49296875 -9.5 33.25 C-8.95859375 33.96414062 -8.4171875 34.67828125 -7.859375 35.4140625 C-5.5507653 38.12182434 -3.85538482 40.01778372 -0.265625 40.6328125 C3.60215763 40.41216718 6.79153967 39.43513845 10 37.25 C13.38793891 33.1844733 13.95267192 30.47427923 13.5 25.25 C12.56052943 20.43326691 11.48845987 15.74642727 9.5 11.25 C7.49200614 9.79115504 7.49200614 9.79115504 5.5 9.25 C4.943125 9.765625 4.38625 10.28125 3.8125 10.8125 C1.5 12.25 1.5 12.25 -1.0625 12.125 C-3.74319828 11.16269805 -4.99253317 10.67869656 -6.5 8.25 C-6.17743433 2.98142739 -5.66902508 0.40493036 0 0 Z " fill="#FBFDFD" transform="translate(32.5,23.75)"/>
</svg>
